<svg xmlns="http://www.w3.org/2000/svg" xmlns:xlink="http://www.w3.org/1999/xlink" width="40" zoomAndPan="magnify" viewBox="0 0 30 30.000001" height="40" preserveAspectRatio="xMidYMid meet" version="1.0"><defs><clipPath id="7998a0f177"><path d="M 0.484375 0 L 29.515625 0 L 29.515625 29.03125 L 0.484375 29.03125 Z M 0.484375 0 " clip-rule="nonzero"/></clipPath><clipPath id="76c6474531"><path d="M 0.484375 0.339844 L 29.515625 0.339844 L 29.515625 29.03125 L 0.484375 29.03125 Z M 0.484375 0.339844 " clip-rule="nonzero"/></clipPath><clipPath id="64924c09d8"><path d="M 13 10.792969 L 29.515625 10.792969 L 29.515625 28 L 13 28 Z M 13 10.792969 " clip-rule="nonzero"/></clipPath><clipPath id="9dd2095b35"><path d="M 14 27 L 29 27 L 29 28.9375 L 14 28.9375 Z M 14 27 " clip-rule="nonzero"/></clipPath></defs><g clip-path="url(#7998a0f177)"><path fill="#ffffff" d="M 0.484375 0 L 29.515625 0 L 29.515625 29.03125 L 0.484375 29.03125 Z M 0.484375 0 " fill-opacity="1" fill-rule="nonzero"/><path fill="#ffffff" d="M 0.484375 0 L 29.515625 0 L 29.515625 29.03125 L 0.484375 29.03125 Z M 0.484375 0 " fill-opacity="1" fill-rule="nonzero"/></g><g clip-path="url(#76c6474531)"><rect x="-3" width="36" fill="#fff952" y="-3" height="36.000001" fill-opacity="1"/></g><g clip-path="url(#64924c09d8)"><path fill="#131112" d="M 28.933594 27.050781 C 29.433594 25.566406 29.734375 24.488281 29.132812 22.90625 C 27.871094 19.601562 22.625 18.238281 21.640625 15.367188 L 22.097656 15.210938 C 23.214844 14.925781 23.890625 13.980469 23.84375 12.769531 C 23.417969 13.277344 23.597656 13.582031 22.804688 13.996094 C 21.238281 14.820312 18.820312 13.203125 20.53125 10.886719 C 19.226562 11.234375 17.941406 14.277344 21.070312 15.257812 L 21.34375 15.367188 C 20.097656 18.78125 10.140625 21.972656 14.125 27.039062 Z M 21.726562 11.609375 L 20.835938 11.632812 L 21.519531 12.203125 L 21.273438 13.015625 L 22.074219 12.535156 C 22.285156 12.726562 22.515625 12.9375 22.765625 13.03125 L 22.53125 12.207031 L 23.226562 11.660156 L 22.324219 11.625 L 22.042969 10.792969 Z M 21.726562 11.609375 " fill-opacity="1" fill-rule="evenodd"/></g><g clip-path="url(#9dd2095b35)"><path fill="#131112" d="M 14.125 27.40625 L 28.898438 27.40625 L 28.898438 28.941406 L 14.125 28.941406 Z M 14.125 27.40625 " fill-opacity="1" fill-rule="evenodd"/></g></svg>